<?xml version="1.0" encoding="UTF-8" standalone="no"?>
<!-- Created with Inkscape (http://www.inkscape.org/) -->
<svg xmlns:dc="http://purl.org/dc/elements/1.1/" xmlns:cc="http://creativecommons.org/ns#" xmlns:rdf="http://www.w3.org/1999/02/22-rdf-syntax-ns#" xmlns:svg="http://www.w3.org/2000/svg" xmlns="http://www.w3.org/2000/svg" xmlns:sodipodi="http://sodipodi.sourceforge.net/DTD/sodipodi-0.dtd" xmlns:inkscape="http://www.inkscape.org/namespaces/inkscape" width="66.916565mm" height="17.296606mm" viewBox="0 0 66.916565 17.296606" version="1.1" id="svg5060" inkscape:version="0.92.1 r15371" sodipodi:docname="logo-ab-alt.svg">
  <defs id="defs5054"/>
  <sodipodi:namedview id="base" pagecolor="#ffffff" bordercolor="#666666" borderopacity="1.0" inkscape:pageopacity="0.0" inkscape:pageshadow="2" inkscape:zoom="2.8" inkscape:cx="116.52691" inkscape:cy="15.777794" inkscape:document-units="mm" inkscape:current-layer="g5080" showgrid="false" inkscape:pagecheckerboard="true" inkscape:window-width="1920" inkscape:window-height="1017" inkscape:window-x="2672" inkscape:window-y="565" inkscape:window-maximized="1"/>
  <metadata id="metadata5057">
    <rdf:RDF>
      <cc:Work rdf:about="">
        <dc:format>image/svg+xml</dc:format>
        <dc:type rdf:resource="http://purl.org/dc/dcmitype/StillImage"/>
        <dc:title/>
      </cc:Work>
    </rdf:RDF>
  </metadata>
  <g inkscape:label="Calque 1" inkscape:groupmode="layer" id="layer1" transform="translate(-44.404813,-218.80408)">
    <g id="g5144" transform="matrix(0.26458333,0,0,0.26458333,43.631436,217.52879)">
      <g id="g5084">
        <g id="g5080">
          <path id="path5062" d="m 86.991,41.824 -2.012,4.312 h -1.306 l 7.994,-17.192 7.55,17.192 h -1.28 l -1.906,-4.312 z m 4.624,-9.978 -4.076,8.803 h 7.97 z" inkscape:connector-curvature="0" style="fill:#354a5d;fill-opacity:1"/>
          <path id="path5064" d="M 104.861,46.136 V 29.153 h 1.176 v 15.805 h 9.535 v 1.177 h -10.711 z" inkscape:connector-curvature="0" style="fill:#354a5d;fill-opacity:1"/>
          <path id="path5066" d="M 122.312,46.136 V 29.153 h 1.177 v 16.982 h -1.177 z" inkscape:connector-curvature="0" style="fill:#354a5d;fill-opacity:1"/>
          <path id="path5068" d="m 138.3,46.318 c -1.55,0 -2.986,-0.392 -4.311,-1.176 -1.323,-0.784 -2.369,-1.839 -3.135,-3.173 -0.767,-1.333 -1.147,-2.785 -1.147,-4.351 0,-1.567 0.381,-3.013 1.147,-4.336 0.766,-1.323 1.812,-2.376 3.135,-3.163 1.324,-0.784 2.761,-1.176 4.311,-1.176 1.203,0 2.354,0.248 3.462,0.746 1.105,0.496 2.077,1.196 2.913,2.103 l -0.916,0.809 c -0.696,-0.782 -1.519,-1.391 -2.466,-1.829 -0.951,-0.436 -1.948,-0.653 -2.993,-0.653 -1.341,0 -2.578,0.336 -3.708,1.007 -1.132,0.671 -2.034,1.58 -2.705,2.73 -0.671,1.151 -1.007,2.403 -1.007,3.762 0,1.359 0.336,2.613 1.007,3.762 0.671,1.148 1.573,2.059 2.705,2.728 1.13,0.671 2.367,1.008 3.708,1.008 1.115,0 2.173,-0.244 3.175,-0.731 1.002,-0.488 1.859,-1.168 2.573,-2.039 l 0.94,0.732 c -0.819,1.027 -1.811,1.826 -2.978,2.39 -1.168,0.568 -2.405,0.85 -3.71,0.85 z" inkscape:connector-curvature="0" style="fill:#354a5d;fill-opacity:1"/>
          <path id="path5070" d="M 150.763,46.136 V 29.153 h 10.998 v 1.203 h -9.823 v 6.688 h 7.655 v 1.201 h -7.655 v 6.662 h 9.823 v 1.229 z" inkscape:connector-curvature="0" style="fill:#354a5d;fill-opacity:1"/>
          <path id="path5072" d="m 184.619,41.223 c 2.248,2.265 3.866,3.902 4.86,4.913 h -1.646 l -1.935,-1.882 c -0.8,0.629 -1.542,1.127 -2.221,1.502 -0.678,0.375 -1.393,0.562 -2.143,0.562 -1.009,0 -1.933,-0.2 -2.771,-0.602 -0.833,-0.4 -1.494,-0.949 -1.983,-1.645 -0.487,-0.697 -0.731,-1.455 -0.731,-2.274 0,-1.043 0.279,-1.892 0.835,-2.545 0.56,-0.653 1.358,-1.233 2.404,-1.74 l -0.496,-0.493 c -0.435,-0.435 -0.823,-0.968 -1.161,-1.595 -0.34,-0.625 -0.511,-1.342 -0.511,-2.141 0.018,-0.576 0.14,-1.124 0.364,-1.646 0.229,-0.524 0.549,-0.985 0.967,-1.386 0.42,-0.401 0.896,-0.705 1.437,-0.915 0.541,-0.208 1.109,-0.312 1.7,-0.312 0.593,0 1.16,0.104 1.709,0.312 0.552,0.21 1.031,0.514 1.449,0.915 0.421,0.401 0.739,0.862 0.97,1.386 0.224,0.522 0.338,1.07 0.338,1.646 0,0.853 -0.365,1.665 -1.097,2.429 -0.331,0.349 -0.705,0.671 -1.124,0.967 l -0.888,-0.864 c 0.609,-0.381 1.087,-0.796 1.426,-1.24 0.338,-0.444 0.506,-0.874 0.506,-1.292 0,-0.4 -0.079,-0.792 -0.246,-1.177 -0.165,-0.382 -0.397,-0.713 -0.691,-0.994 -0.647,-0.591 -1.432,-0.888 -2.352,-0.888 -0.907,0 -1.681,0.297 -2.325,0.888 -0.612,0.559 -0.933,1.282 -0.967,2.17 0,0.574 0.131,1.105 0.394,1.594 0.258,0.488 0.536,0.878 0.833,1.175 1.151,1.184 2.851,2.909 5.096,5.172 z m -1.385,3.423 c 0.574,-0.312 1.183,-0.724 1.828,-1.228 l -4.882,-5.016 c -1.03,0.471 -1.78,0.95 -2.248,1.437 -0.473,0.488 -0.704,1.14 -0.704,1.958 0,0.612 0.191,1.169 0.571,1.672 0.385,0.506 0.905,0.906 1.568,1.203 0.663,0.297 1.386,0.444 2.168,0.444 0.56,0 1.124,-0.158 1.699,-0.47 z" inkscape:connector-curvature="0" style="fill:#354a5d;fill-opacity:1"/>
          <path id="path5074" d="m 215.253,38.835 c 0.563,0.739 0.848,1.581 0.848,2.521 0,0.609 -0.138,1.203 -0.407,1.788 -0.266,0.584 -0.655,1.103 -1.162,1.556 -0.521,0.454 -1.134,0.804 -1.838,1.057 -0.709,0.253 -1.452,0.379 -2.236,0.379 h -6.241 l 0.022,-16.982 h 4.858 c 1.585,0 2.85,0.445 3.791,1.333 0.433,0.399 0.769,0.86 1.004,1.384 0.236,0.523 0.354,1.062 0.354,1.622 0,0.695 -0.164,1.331 -0.483,1.905 -0.324,0.576 -0.721,1.02 -1.189,1.333 l -0.235,0.156 c 0.332,0.104 0.618,0.209 0.86,0.314 0.803,0.347 1.485,0.89 2.054,1.634 z m -9.839,-2.288 h 3.634 c 0.467,0 0.86,-0.026 1.174,-0.077 0.315,-0.053 0.627,-0.141 0.94,-0.263 0.453,-0.19 0.883,-0.521 1.296,-0.992 0.406,-0.47 0.611,-1.046 0.611,-1.723 0,-0.542 -0.152,-1.053 -0.458,-1.531 -0.303,-0.478 -0.756,-0.866 -1.358,-1.164 -0.598,-0.294 -1.317,-0.441 -2.156,-0.441 h -3.683 z m 7.393,7.889 c 0.682,-0.347 1.203,-0.794 1.568,-1.343 0.366,-0.549 0.55,-1.128 0.55,-1.737 0,-0.681 -0.213,-1.295 -0.641,-1.843 -0.427,-0.549 -0.938,-0.952 -1.526,-1.215 -0.839,-0.365 -1.889,-0.549 -3.161,-0.549 h -4.183 v 7.21 h 5.043 c 0.887,-0.001 1.672,-0.171 2.35,-0.523 z" inkscape:connector-curvature="0" style="fill:#354a5d;fill-opacity:1"/>
          <path id="path5076" d="m 229.604,46.318 c -1.549,0 -2.985,-0.388 -4.31,-1.161 -1.322,-0.778 -2.37,-1.832 -3.135,-3.161 -0.765,-1.333 -1.149,-2.784 -1.149,-4.353 0,-1.566 0.385,-3.018 1.149,-4.351 0.765,-1.331 1.812,-2.383 3.135,-3.16 1.324,-0.774 2.761,-1.163 4.31,-1.163 1.552,0 2.989,0.389 4.312,1.163 1.325,0.776 2.368,1.829 3.135,3.16 0.764,1.333 1.15,2.785 1.15,4.351 0,1.568 -0.387,3.02 -1.15,4.353 -0.767,1.329 -1.81,2.383 -3.135,3.161 -1.322,0.773 -2.76,1.161 -4.312,1.161 z m 0,-16.146 c -1.338,0 -2.576,0.337 -3.709,1.008 -1.131,0.671 -2.032,1.576 -2.703,2.714 -0.669,1.144 -1.006,2.394 -1.006,3.75 0,1.358 0.337,2.611 1.006,3.75 0.671,1.14 1.572,2.045 2.703,2.715 1.133,0.67 2.371,1.007 3.709,1.007 1.342,0 2.58,-0.336 3.71,-1.007 1.135,-0.67 2.029,-1.576 2.694,-2.715 0.661,-1.14 0.992,-2.392 0.992,-3.75 0,-1.356 -0.331,-2.605 -0.992,-3.75 -0.665,-1.138 -1.56,-2.043 -2.694,-2.714 -1.129,-0.671 -2.368,-1.008 -3.71,-1.008 z" inkscape:connector-curvature="0" style="fill:#354a5d;fill-opacity:1"/>
          <path id="path5078" d="m 254.985,38.835 c 0.566,0.739 0.851,1.581 0.851,2.521 0,0.609 -0.135,1.203 -0.405,1.788 -0.27,0.585 -0.659,1.103 -1.167,1.556 -0.521,0.454 -1.133,0.804 -1.838,1.057 -0.704,0.253 -1.45,0.379 -2.235,0.379 h -6.242 l 0.027,-16.982 h 4.859 c 1.584,0 2.844,0.445 3.785,1.333 0.438,0.399 0.773,0.86 1.004,1.384 0.238,0.523 0.356,1.062 0.356,1.622 0,0.695 -0.161,1.331 -0.485,1.905 -0.323,0.576 -0.718,1.02 -1.187,1.333 l -0.236,0.156 c 0.331,0.104 0.621,0.209 0.864,0.314 0.799,0.349 1.482,0.89 2.049,1.634 z m -9.837,-2.288 h 3.634 c 0.468,0 0.86,-0.026 1.177,-0.077 0.312,-0.053 0.625,-0.141 0.94,-0.263 0.448,-0.19 0.883,-0.521 1.291,-0.992 0.41,-0.47 0.611,-1.046 0.611,-1.723 0,-0.542 -0.151,-1.053 -0.455,-1.531 -0.306,-0.478 -0.759,-0.866 -1.356,-1.164 -0.602,-0.294 -1.323,-0.441 -2.155,-0.441 h -3.687 z m 7.396,7.889 c 0.678,-0.347 1.199,-0.794 1.565,-1.343 0.365,-0.549 0.549,-1.128 0.549,-1.737 0,-0.681 -0.214,-1.295 -0.64,-1.843 -0.428,-0.549 -0.938,-0.952 -1.527,-1.215 -0.835,-0.365 -1.889,-0.549 -3.161,-0.549 h -4.182 v 7.21 h 5.042 c 0.892,-0.001 1.672,-0.171 2.354,-0.523 z" inkscape:connector-curvature="0" style="fill:#354a5d;fill-opacity:1"/>
        </g>
        <circle id="circle5082" r="1.5930001" cy="40.616001" cx="189.14101" style="fill:#ffffff;fill-opacity:1"/>
      </g>
      <g id="g5110">
        <g id="g5090">
          <path id="path5086" d="m 27.02,34.787 c 0.147,0.181 0.287,0.356 0.423,0.528 5.559,-1.511 10.958,-1.582 16.458,-0.188 0.343,-0.406 0.702,-0.841 1.075,-1.316 2.257,-2.855 8.411,-12.573 9.284,-13.679 1.648,12.593 3.571,27.308 5.196,39.72 5.48,-5.846 8.842,-13.701 8.842,-22.345 C 68.298,19.455 53.662,4.82 35.61,4.82 17.557,4.82 2.923,19.455 2.923,37.507 c 0,8.667 3.378,16.54 8.883,22.39 1.631,-12.455 3.358,-27.081 5.018,-39.76 2.36,2.755 9.996,14.404 10.196,14.65 z" inkscape:connector-curvature="0" style="fill:#ffffff;fill-opacity:1"/>
          <path id="path5088" d="m 35.61,70.193 c 9.408,0 17.882,-3.98 23.846,-10.343 -1.625,-12.412 -3.548,-27.126 -5.196,-39.72 -0.873,1.106 -7.027,10.824 -9.284,13.679 -0.373,0.476 -0.732,0.91 -1.075,1.316 C 38.402,33.731 33.003,33.802 27.443,35.313 27.307,35.142 27.167,34.966 27.02,34.785 26.821,34.539 19.185,22.89 16.824,20.133 c -1.66,12.679 -3.387,27.305 -5.018,39.76 5.962,6.338 14.417,10.3 23.804,10.3 z" inkscape:connector-curvature="0" style="fill:#010102"/>
        </g>
        <path id="path5092" d="M 47.928,53.831" inkscape:connector-curvature="0" style="fill:#ffd802"/>
        <g id="g5100">
          <path id="path5094" d="m 40.021,57.065 c -0.04,-0.187 0.002,-0.38 0.053,-0.563 0.194,-0.7 0.514,-1.367 0.918,-1.969 0.633,-0.936 1.479,-1.725 2.465,-2.27 0.987,-0.546 2.112,-0.842 3.24,-0.835 1.966,0.012 3.903,0.991 5.08,2.569 -0.07,1.786 -1.062,3.511 -2.572,4.469 -1.267,0.8 -2.831,1.06 -4.32,0.884 -1.485,-0.179 -2.904,-0.766 -4.185,-1.543 -0.149,-0.092 -0.295,-0.184 -0.419,-0.302 -0.123,-0.12 -0.226,-0.272 -0.26,-0.44 z" inkscape:connector-curvature="0" style="fill:#ffd800"/>
          <path id="path5096" d="m 48.797,51.677 c -0.212,-0.077 -0.422,-0.144 -0.643,-0.199 -0.239,-0.059 -0.479,-0.103 -0.723,-0.135 -0.243,-0.03 -0.488,-0.046 -0.735,-0.05 -0.143,0 -0.281,0.006 -0.422,0.012 -0.141,0.01 -0.282,0.022 -0.421,0.041 -0.141,0.017 -0.279,0.039 -0.418,0.066 -0.138,0.027 -0.273,0.059 -0.411,0.093 -0.274,0.07 -0.542,0.157 -0.804,0.262 -0.262,0.105 -0.518,0.227 -0.765,0.36 -0.244,0.136 -0.482,0.289 -0.712,0.454 -0.178,0.13 -0.347,0.273 -0.514,0.42 -0.096,0.346 -0.148,0.711 -0.148,1.091 0,2.169 1.68,3.927 3.757,3.927 2.076,0 3.757,-1.758 3.757,-3.927 10e-4,-0.911 -0.298,-1.748 -0.798,-2.415 z" inkscape:connector-curvature="0" style="fill:#010102"/>
          <path id="path5098" d="m 43.687,54.417 c 0,0.598 0.438,1.086 0.974,1.086 0.54,0 0.975,-0.488 0.975,-1.086 0,-0.6 -0.435,-1.086 -0.975,-1.086 -0.536,-0.001 -0.974,0.485 -0.974,1.086 z" inkscape:connector-curvature="0" style="fill:#ffffff"/>
        </g>
        <g id="g5108">
          <path id="path5102" d="m 31.31,57.065 c 0.04,-0.187 -10e-4,-0.38 -0.054,-0.563 -0.194,-0.7 -0.512,-1.367 -0.919,-1.969 -0.629,-0.936 -1.478,-1.725 -2.465,-2.27 -0.986,-0.546 -2.111,-0.842 -3.238,-0.835 -1.967,0.012 -3.903,0.991 -5.079,2.569 0.068,1.785 1.062,3.511 2.572,4.469 1.266,0.8 2.831,1.06 4.319,0.884 1.487,-0.179 2.905,-0.766 4.186,-1.543 0.148,-0.092 0.295,-0.184 0.418,-0.302 0.124,-0.12 0.225,-0.272 0.26,-0.44 z" inkscape:connector-curvature="0" style="fill:#ffd800"/>
          <path id="path5104" d="m 22.533,51.677 c 0.21,-0.077 0.424,-0.144 0.643,-0.199 0.238,-0.059 0.48,-0.104 0.722,-0.135 0.245,-0.03 0.491,-0.046 0.735,-0.05 0.141,0 0.281,0.006 0.422,0.012 0.14,0.01 0.282,0.022 0.421,0.041 0.14,0.017 0.278,0.039 0.417,0.066 0.138,0.027 0.275,0.059 0.412,0.093 0.273,0.07 0.542,0.157 0.805,0.262 0.261,0.104 0.516,0.227 0.763,0.36 0.247,0.136 0.484,0.289 0.711,0.454 0.179,0.13 0.348,0.273 0.514,0.419 0.096,0.347 0.149,0.713 0.149,1.092 0,2.169 -1.683,3.927 -3.758,3.927 -2.076,0 -3.758,-1.758 -3.758,-3.927 0.002,-0.911 0.302,-1.748 0.802,-2.415 z" inkscape:connector-curvature="0" style="fill:#010102"/>
          <ellipse id="ellipse5106" ry="1.084" rx="0.97299999" cy="54.455002" cx="26.636" style="fill:#ffffff"/>
        </g>
      </g>
    </g>
  </g>
</svg>