<svg width="201" height="56" viewBox="0 0 201 56" fill="none" xmlns="http://www.w3.org/2000/svg">
<g clip-path="url(#clip0_13_1620)">
<path d="M110.766 18.2136C109.539 18.3836 108.544 18.6711 107.62 19.124C105.471 20.1808 104.535 21.7477 104.535 24.3226C104.535 27.0919 105.543 28.7077 107.754 29.4968C108.762 29.8491 110.183 29.9947 112.673 29.9947C113.839 29.9947 115.005 30.0557 115.26 30.1282C116.328 30.4202 116.9 31.3672 116.766 32.6306C116.633 33.8811 115.843 34.7321 114.386 35.169C113.475 35.4602 110.171 35.448 108.605 35.169C107.56 34.9867 105.908 34.5857 105.459 34.4156C105.276 34.3432 105.264 34.4919 105.288 36.0168L105.325 37.6943L105.935 37.8521C107.885 38.369 109.894 38.6254 111.911 38.6146C115.372 38.6146 117.765 37.8613 119.138 36.3272C120.049 35.307 120.45 34.0923 120.45 32.2951C120.45 29.7927 119.6 28.1899 117.838 27.3634C116.587 26.7808 115.943 26.6833 112.737 26.6009C109.858 26.5247 109.676 26.5155 109.202 26.2364C108.592 25.8964 108.316 25.4473 108.219 24.6451C108.073 23.4069 108.692 22.3378 109.87 21.8155C111.061 21.2932 113.162 21.1232 115.446 21.3779C116.563 21.4999 118.518 21.9246 119.271 22.2044C119.401 22.2587 119.535 22.3033 119.672 22.3378C119.696 22.3378 119.721 21.5967 119.721 20.6977V19.0622L119.393 18.9288C119.199 18.8525 118.421 18.6611 117.656 18.4911C116.502 18.2486 115.846 18.1861 113.891 18.151C112.586 18.1282 111.179 18.1526 110.766 18.2136Z" fill="#00704A"/>
<path d="M135.566 18.1646C132.08 18.6869 129.858 20.1204 128.643 22.6343C127.926 24.1036 127.623 25.4281 127.525 27.3831C127.355 31.1124 128.44 34.5009 130.368 36.3347C131.788 37.6828 134.23 38.5939 136.44 38.6221H137.084L138.019 39.8002C138.529 40.4559 139.574 41.7682 140.339 42.7274L141.712 44.4643L142.161 44.1364C142.404 43.9542 143.06 43.4563 143.61 43.0308L144.618 42.2539L142.978 40.3591L141.351 38.4529L142.346 38.0762C143.622 37.5905 144.265 37.1894 145.168 36.2668C146.235 35.1734 146.977 33.6309 147.438 31.5173C147.536 31.0438 147.596 29.9382 147.584 28.2988C147.572 26.0152 147.548 25.7117 147.256 24.6183C146.551 21.9588 145.228 20.234 143.103 19.1772C141.548 18.4147 140.528 18.2058 138.062 18.157C136.89 18.128 135.772 18.1402 135.566 18.1646ZM139.307 21.4319C141.469 21.8932 142.814 23.12 143.437 25.2214C143.789 26.4117 143.922 28.173 143.765 29.5333C143.4 32.7396 142.185 34.4277 139.707 35.1932C139.283 35.3267 138.615 35.3755 137.572 35.3755C136.276 35.3755 135.932 35.3267 135.155 35.0598C132.519 34.1364 131.366 32.1082 131.354 28.3553C131.341 25.7315 131.852 24.1158 133.042 22.9012C134.391 21.5287 136.95 20.934 139.307 21.4319Z" fill="#00704A"/>
<path d="M56.8008 28.3554V38.4964H60.4439V21.493H63.4565C66.3715 21.493 66.4927 21.5052 67.0028 21.7721C67.7653 22.1731 68.0962 22.8395 68.0962 23.9833C68.0962 25.9024 66.845 27.1171 64.1123 27.8582C63.529 28.016 63.0677 28.1983 63.0677 28.2463C63.0799 28.3073 63.1767 29.0241 63.3109 29.8376C63.5656 31.599 63.3871 31.5014 65.4969 30.9669C69.8088 29.8864 71.9826 27.4937 71.9826 23.8758C71.9826 20.7907 70.598 18.9958 67.7684 18.3981C67.1241 18.2646 65.8248 18.2158 61.8774 18.2158H56.8008V28.3554Z" fill="#00704A"/>
<path d="M85.7924 18.2994C85.7558 18.3603 85.0391 20.0363 84.1912 22.0409C83.3433 24.0454 81.7253 27.8464 80.6075 30.4816C79.4897 33.1167 78.2751 35.9837 77.8992 36.8582L77.2305 38.4373L79.065 38.4739C80.073 38.4861 80.9354 38.4617 80.9842 38.4129C81.0604 38.3283 83.6529 32.0241 86.474 25.0405C87.1054 23.4858 87.6643 22.2109 87.7245 22.1987C87.8099 22.1987 90.9315 29.437 90.9315 29.6558C90.9315 29.7168 90.0082 29.7534 88.8789 29.7534H86.8378L86.2278 31.2959L85.633 32.8499L88.9483 32.8865L92.2766 32.9109L92.6166 33.6733C92.8111 34.0858 93.3334 35.3371 93.7947 36.4541L94.6334 38.4953H96.6158C97.6963 38.4953 98.5831 38.4709 98.5831 38.4465C98.5831 38.4099 98.2064 37.5231 97.7443 36.464C97.2823 35.4049 96.1896 32.8804 95.3044 30.8407C94.4298 28.8003 93.3852 26.3954 92.9849 25.4964C92.5846 24.5975 91.7337 22.5937 91.0657 21.0634L89.8511 18.2696L87.8473 18.2338C86.7516 18.2231 85.816 18.2498 85.7924 18.2994Z" fill="#00704A"/>
<path d="M162.435 18.4203C162.398 18.5415 161.961 19.5983 161.463 20.7642C160.965 21.93 159.328 25.7806 157.819 29.3269C156.325 32.861 154.846 36.3593 154.528 37.076C154.223 37.7927 153.969 38.4119 153.969 38.4363C153.969 38.4729 154.807 38.4973 155.827 38.4973H157.697L157.831 38.1923C157.916 38.0223 158.803 35.8484 159.814 33.3589C163.398 24.5408 164.32 22.2815 164.381 22.1725C164.417 22.1115 164.527 22.1969 164.599 22.3547C164.721 22.5728 167.308 28.7192 167.66 29.593C167.709 29.715 167.26 29.7516 165.656 29.7516H163.591L163.02 31.1721C162.705 31.962 162.425 32.678 162.389 32.7512C162.34 32.8724 163.081 32.909 165.693 32.9334L169.048 32.97L169.752 34.6094C170.129 35.5083 170.663 36.7596 170.918 37.3665L171.38 38.4965H175.352L175.182 38.0955C175.096 37.8888 174.185 35.7874 173.165 33.4557C172.145 31.1119 171.161 28.8526 170.979 28.4149C170.797 27.9773 169.922 25.962 169.035 23.9216C168.149 21.8812 167.238 19.7676 166.995 19.2087L166.57 18.2129H164.542C162.701 18.2137 162.496 18.2381 162.435 18.4203Z" fill="#00704A"/>
<path d="M182.266 28.3552V38.4963H194.048V35.3388H186.031V18.2134H182.266V28.3552Z" fill="#00704A"/>
<path d="M12.8987 11.4882C13.8007 11.5042 14.3939 11.9747 14.6776 12.5877H19.0588C19.3341 11.9472 19.9372 11.4493 20.8682 11.4341C23.5148 11.4791 23.514 15.415 20.8682 15.46C19.9487 15.4448 19.3493 14.9591 19.0687 14.33H14.7035C14.4328 14.9728 13.8312 15.4737 12.8987 15.4905C10.2681 15.4455 10.2681 11.5324 12.8987 11.4882Z" fill="#00704A"/>
<path d="M16.1833 30.3755C13.5375 30.3306 13.5382 26.3938 16.1833 26.3496C18.8299 26.3946 18.8291 30.3306 16.1833 30.3755Z" fill="#00704A"/>
<path d="M12.6676 45.0316C10.3802 44.9935 10.0813 42.0229 11.7778 41.2253V36.8875C10.0027 36.1189 10.2849 33.0522 12.6219 33.0156C14.9513 33.056 15.2418 36.093 13.4934 36.8807V41.2009C15.2609 41.9527 14.9856 44.9928 12.6676 45.0316Z" fill="#00704A"/>
<path d="M8.31635 27.7725C8.64956 28.9162 8.02127 30.3604 6.42996 30.3871C3.79939 30.3421 3.79939 26.429 6.42996 26.3848C6.6654 26.3868 6.89904 26.4259 7.1223 26.5007L10.4506 23.1106C10.08 21.944 10.7113 20.4419 12.3438 20.416C15.0049 20.4618 15.0049 24.4206 12.3438 24.4656C12.1145 24.4635 11.8867 24.427 11.6682 24.3573L8.31635 27.7725Z" fill="#00704A"/>
<path d="M19.5 18.3447C22.1305 18.3897 22.1305 22.3028 19.5 22.347C16.8694 22.3021 16.8702 18.3897 19.5 18.3447Z" fill="#00704A"/>
<path d="M17.5039 36.3913C17.5458 33.7653 21.5154 33.7942 21.5298 36.3913C21.5283 39.0317 17.5039 39.0546 17.5039 36.3913Z" fill="#00704A"/>
<path d="M27.5664 41.736C24.9358 41.691 24.9366 37.7779 27.5664 37.7329C30.1947 37.7779 30.1947 41.691 27.5664 41.736Z" fill="#00704A"/>
<path d="M27.5664 30.3755C24.9206 30.3306 24.9206 26.3938 27.5664 26.3496C30.2107 26.3946 30.2099 30.3306 27.5664 30.3755Z" fill="#00704A"/>
<path d="M27.4765 51.2588C25.9103 51.2321 25.2767 49.8344 25.5748 48.6976L22.3503 45.5028C22.1346 45.5711 21.9101 45.6071 21.6839 45.6095C19.0533 45.5645 19.0533 41.6514 21.6839 41.6064C23.2942 41.6339 23.9187 43.1108 23.5565 44.2622L26.7193 47.396C26.9615 47.3052 27.2179 47.258 27.4765 47.2565C30.1071 47.3015 30.1063 51.2145 27.4765 51.2588Z" fill="#00704A"/>
<path d="M33.3446 15.0773C31.7289 15.0498 31.1006 13.5721 31.4575 12.4147L28.4235 9.37847C28.2155 9.44273 27.9992 9.47638 27.7815 9.47836C25.1509 9.43337 25.1509 5.5203 27.7815 5.47607C29.3904 5.50352 30.0148 6.97817 29.6557 8.12952L32.6813 11.1551C32.8959 11.0871 33.1195 11.0514 33.3446 11.0491C35.9912 11.0971 35.9904 15.0331 33.3446 15.0773Z" fill="#00704A"/>
<path d="M35.605 38.4163C32.9729 38.4163 32.9363 34.4179 35.605 34.4019C38.2135 34.4171 38.1761 38.4178 35.605 38.4163Z" fill="#00704A"/>
<path d="M28.9776 15.602C30.8601 17.4319 27.9917 20.2531 26.1518 18.4155C24.2685 16.5848 27.1613 13.708 28.9776 15.602Z" fill="#00704A"/>
<path d="M35.582 18.3447C38.2126 18.3897 38.2126 22.3028 35.582 22.347C32.9514 22.3021 32.9522 18.3897 35.582 18.3447Z" fill="#00704A"/>
<path d="M42.2212 45.196C41.3428 45.1815 40.7557 44.7385 40.4614 44.1491H36.0672C35.8072 44.8437 35.1873 45.3943 34.2159 45.3912C31.6448 45.3439 31.5968 41.4262 34.2159 41.35C35.1126 41.35 35.7035 41.8037 35.994 42.4038H40.3768C40.6353 41.7244 41.2498 41.1838 42.2205 41.167C44.867 41.215 44.867 45.151 42.2212 45.196Z" fill="#00704A"/>
<path d="M38.9284 26.3496C41.5742 26.3946 41.5742 30.3306 38.9284 30.3755C36.2787 30.3306 36.2795 26.3938 38.9284 26.3496Z" fill="#00704A"/>
<path d="M42.4494 11.7051C44.7544 11.7447 45.0518 14.7382 43.3392 15.5373V19.84C45.157 20.5713 44.8916 23.6738 42.5447 23.7127C40.2649 23.6738 39.9523 20.7482 41.597 19.9102V15.5549C39.8425 14.7809 40.1277 11.7424 42.4494 11.7051Z" fill="#00704A"/>
<path d="M48.4501 30.4632C48.2523 30.4612 48.0557 30.4333 47.8652 30.3801L44.6811 33.6252C45.0532 34.785 44.4256 36.281 42.8008 36.3084C40.1549 36.2634 40.1549 32.3275 42.8008 32.2825C43.023 32.2846 43.2436 32.3193 43.4558 32.3854L46.5995 29.183C46.1916 28.0225 46.8092 26.4884 48.4501 26.4609C51.0806 26.5059 51.0806 30.4228 48.4501 30.4632Z" fill="#00704A"/>
</g>
<defs>
<clipPath id="clip0_13_1620">
<rect width="200" height="55.509" fill="white" transform="translate(0.5)"/>
</clipPath>
</defs>
</svg>