<?xml version="1.0" encoding="UTF-8" standalone="no"?>
<!-- Created with Inkscape (http://www.inkscape.org/) -->

<svg
   xmlns:dc="http://purl.org/dc/elements/1.1/"
   xmlns:cc="http://creativecommons.org/ns#"
   xmlns:rdf="http://www.w3.org/1999/02/22-rdf-syntax-ns#"
   xmlns:svg="http://www.w3.org/2000/svg"
   xmlns="http://www.w3.org/2000/svg"
   xmlns:sodipodi="http://sodipodi.sourceforge.net/DTD/sodipodi-0.dtd"
   xmlns:inkscape="http://www.inkscape.org/namespaces/inkscape"
   width="112.80132mm"
   height="84.777229mm"
   viewBox="0 0 112.80131 84.777229"
   version="1.1"
   id="svg36"
   inkscape:version="0.92.3 (2405546, 2018-03-11)"
   sodipodi:docname="logo-v2.svg">
  <defs
     id="defs30" />
  <sodipodi:namedview
     id="base"
     pagecolor="#ffffff"
     bordercolor="#666666"
     borderopacity="1.0"
     inkscape:pageopacity="0.0"
     inkscape:pageshadow="2"
     inkscape:zoom="1.4"
     inkscape:cx="221.6035"
     inkscape:cy="105.0941"
     inkscape:document-units="mm"
     inkscape:current-layer="layer1"
     showgrid="false"
     inkscape:window-width="1920"
     inkscape:window-height="1016"
     inkscape:window-x="0"
     inkscape:window-y="27"
     inkscape:window-maximized="1" />
  <metadata
     id="metadata33">
    <rdf:RDF>
      <cc:Work
         rdf:about="">
        <dc:format>image/svg+xml</dc:format>
        <dc:type
           rdf:resource="http://purl.org/dc/dcmitype/StillImage" />
        <dc:title />
      </cc:Work>
    </rdf:RDF>
  </metadata>
  <g
     inkscape:label="Calque 1"
     inkscape:groupmode="layer"
     id="layer1"
     transform="translate(-2.2941753,-8.4083428)">
    <g
       id="g823"
       transform="matrix(0.3868615,0.05352108,-0.05352108,0.3868615,12.898757,3.6541474)">
      <g
         id="g58"
         transform="rotate(32.790314,96.004072,118.24497)">
        <path
           inkscape:connector-curvature="0"
           id="path827"
           d="m 153.08984,165.31185 c -0.0307,-0.0305 -0.8247,-0.13287 -1.76438,-0.22761 -2.25248,-0.22709 -2.71808,-0.28919 -4.75123,-0.63372 -0.94589,-0.16028 -2.11969,-0.34975 -2.60846,-0.42105 -0.48876,-0.0713 -1.09818,-0.24176 -1.35427,-0.37882 -0.25609,-0.13705 -0.52223,-0.19257 -0.59142,-0.12338 -0.0692,0.0692 -0.62063,-0.0488 -1.22542,-0.26215 -0.60478,-0.21338 -1.0996,-0.33979 -1.0996,-0.28091 0,0.0589 -0.4433,-0.0782 -0.98512,-0.30456 -0.54181,-0.22638 -1.28595,-0.46503 -1.65364,-0.53033 -1.04447,-0.18549 -5.03785,-1.61516 -5.43717,-1.94657 -0.15118,-0.12547 -0.60279,-0.28759 -1.00356,-0.36027 -0.40078,-0.0727 -1.11145,-0.36251 -1.57928,-0.64409 -0.46784,-0.28157 -1.01126,-0.45343 -1.20762,-0.3819 -0.26552,0.0967 -0.24748,-0.0371 0.0704,-0.52226 0.39347,-0.60051 0.64247,-0.66605 3.13514,-0.82519 2.23731,-0.14283 10.79403,-1.17378 15.82381,-1.90651 l 1.20983,-0.17625 1.34667,1.81547 c 1.34454,1.81259 3.81726,4.31225 6.817,6.89127 l 1.5875,1.36484 -2.33666,-0.0453 c -1.28516,-0.0249 -2.36179,-0.0702 -2.39252,-0.10069 z M 28.481828,134.60941 c -1.005105,-4.8002 -1.102209,-5.84339 -1.089808,-11.70782 0.01344,-6.35291 0.247877,-8.31778 1.625814,-13.62604 0.613415,-2.36307 2.121707,-6.74687 2.321332,-6.74687 0.04233,0 0.594075,0.68461 1.226106,1.52135 3.229952,4.27611 8.829017,11.09117 13.133457,15.98576 1.493292,1.69803 2.715077,3.14602 2.715077,3.21776 0,0.0717 -1.279922,0.81368 -2.844271,1.64876 -5.785837,3.08862 -10.612768,6.41626 -14.528602,10.01588 -1.042109,0.95796 -1.947621,1.74174 -2.012246,1.74174 -0.06463,0 -0.310713,-0.92274 -0.546859,-2.05052 z m 131.486272,0.27495 c -0.0546,-0.0546 -0.7391,-0.14192 -1.52107,-0.194 -1.30126,-0.0867 -2.04683,-0.17693 -4.72905,-0.57254 -1.68776,-0.24893 -2.06765,-0.31544 -2.95585,-0.51749 -0.48434,-0.11018 -1.05921,-0.22212 -1.27749,-0.24875 -0.21828,-0.0266 -0.93219,-0.1986 -1.58647,-0.38214 -0.65427,-0.18355 -1.41586,-0.3773 -1.6924,-0.43056 -0.27655,-0.0533 -0.93186,-0.24406 -1.45624,-0.424 -0.52439,-0.17995 -1.01296,-0.33669 -1.08572,-0.34833 -0.56632,-0.0906 -3.37265,-1.06424 -3.62643,-1.25823 -0.17553,-0.13417 -0.46218,-0.15555 -0.63699,-0.0475 -0.2302,0.14227 -0.26704,0.0208 -0.13359,-0.44024 0.32137,-1.11049 0.4818,-9.81082 0.22152,-12.01377 -0.13755,-1.16416 -0.23514,-2.13797 -0.21687,-2.164 0.0183,-0.026 1.22239,0.60754 2.67581,1.40796 7.56618,4.16675 15.78278,6.89345 25.13217,8.34015 2.67154,0.41338 5.21201,0.55902 11.37709,0.6522 4.36562,0.066 8.43508,0.24722 9.04323,0.40274 1.76847,0.45225 2.30777,1.23466 2.42293,3.51514 l 0.0977,1.93423 -0.75484,-0.0894 c -0.41516,-0.0492 -3.50619,0.44212 -6.86896,1.09174 -3.36277,0.64963 -6.81558,1.24949 -7.67292,1.33303 -0.85733,0.0835 -2.03504,0.20701 -2.61712,0.27438 -1.33994,0.15509 -12.0051,0.31271 -12.13842,0.17939 z m -52.94908,-13.13184 c -1.79764,-0.59661 -3.15443,-1.40615 -4.3345,-2.58622 -1.03873,-1.03873 -2.1478,-2.7765 -2.1478,-3.36533 0,-0.34168 2.31851,-1.29865 4.71625,-1.94665 3.73315,-1.0089 13.54307,-0.67336 13.98502,0.47835 0.0757,0.19741 -0.213,1.10485 -0.64168,2.01653 -1.59048,3.38255 -4.79236,5.51506 -8.51433,5.67072 -1.18755,0.0497 -2.436,-0.0593 -3.06296,-0.2674 z M 53.976139,118.07295 C 48.212405,110.72767 42.451942,102.79137 38.498638,96.749318 l -2.309934,-3.530402 0.86991,-1.232098 c 2.723058,-3.856805 7.879379,-9.166935 11.65229,-11.999868 6.893007,-5.175692 14.643294,-8.492929 23.779986,-10.178185 3.566983,-0.657929 13.630934,-0.657929 17.197917,0 6.02423,1.111165 11.994213,3.133548 16.668753,5.646685 4.38484,2.35739 10.31875,6.662531 10.31875,7.486409 0,0.482626 -1.71807,5.637138 -3.54125,10.624373 -0.67169,1.837375 -1.22125,3.403079 -1.22125,3.47934 0,0.07626 0.62508,0.286086 1.38906,0.466275 1.85947,0.438563 4.73275,1.90164 6.02203,3.066423 l 1.0479,0.94671 0.24772,-0.62263 c 0.13624,-0.34244 1.07233,-2.692355 2.0802,-5.222018 l 1.83248,-4.599387 1.49898,2.252827 c 3.27702,4.925065 5.70007,10.392418 7.17229,16.183508 0.88351,3.47534 1.37307,6.24056 1.10484,6.24056 -0.0791,0 -1.90594,-0.34736 -4.05973,-0.77192 -2.15379,-0.42456 -5.41932,-0.97833 -7.25673,-1.2306 l -3.34074,-0.45867 -0.12778,-1.7859 c -0.25379,-3.54694 -2.45035,-6.7099 -5.75844,-8.29191 -1.53044,-0.7319 -1.98197,-0.82245 -4.10104,-0.82245 -2.05427,0 -2.60304,0.1025 -3.99642,0.74646 -3.01848,1.39503 -5.46504,4.66554 -5.836524,7.80217 l -0.155557,1.31343 -3.340126,0.17679 c -13.790015,0.72988 -25.737178,2.85445 -36.553347,6.50031 -2.15418,0.72611 -3.956564,1.32021 -4.005303,1.32021 -0.04874,0 -0.859382,-0.98226 -1.801434,-2.18281 z M 37.144329,60.573947 c -0.669711,-1.602841 -0.759434,-3.5247 -0.247121,-5.293234 0.372327,-1.285298 0.747469,-1.861007 2.082758,-3.196293 1.335286,-1.335289 1.910995,-1.710431 3.196293,-2.082758 2.883983,-0.83544 5.664698,-0.114295 7.791615,2.020657 1.368075,1.373246 2.114386,2.898482 2.336691,4.775494 0.159179,1.344012 0.152056,1.361731 -0.475517,1.183262 -4.977336,-1.415468 -9.793423,-0.434232 -13.271434,2.703938 l -0.992651,0.895657 z"
           style="fill:#3f3f3f;stroke-width:0.26458299" />
        <path
           inkscape:connector-curvature="0"
           id="path825"
           d="m 38.069611,209.84495 c -0.05877,-0.0538 -0.679175,-0.16579 -1.378688,-0.24892 -1.440508,-0.1712 -2.584667,-0.79857 -3.786902,-2.07646 -5.38162,-5.72026 -4.53575,-21.86814 2.32092,-44.30693 l 0.820081,-2.68375 1.707422,1.89 c 1.935393,2.14235 1.8683,1.57699 0.758074,6.38791 -3.06596,13.2857 -2.944696,23.32048 0.328022,27.14391 3.422243,3.99812 10.281863,1.46848 18.837765,-6.94687 2.703682,-2.65927 6.290858,-6.56627 7.715976,-8.40392 l 0.703299,-0.90689 2.602344,0.56561 c 1.431287,0.31109 3.108357,0.64036 3.72682,0.73171 0.618464,0.0914 1.12448,0.24963 1.12448,0.35173 0,0.18682 -3.54279,4.51 -6.313951,7.70477 -2.018739,2.32734 -10.145612,10.46072 -11.910725,11.92027 -0.782997,0.64745 -1.556903,1.30345 -1.719791,1.45777 -0.162888,0.15432 -1.30819,0.9831 -2.545117,1.84173 -1.236927,0.85863 -2.30849,1.62534 -2.38125,1.70379 -0.139362,0.15027 -0.942229,0.60477 -2.910417,1.64759 -1.382514,0.73251 -4.014002,1.70932 -5.159375,1.91516 -1.839553,0.3306 -2.438101,0.40411 -2.538987,0.31179 z M 145.3836,200.6959 c -0.43656,-0.12826 -1.62719,-0.43571 -2.64583,-0.68324 -1.01865,-0.24751 -2.20927,-0.60758 -2.64584,-0.80013 -0.43656,-0.19256 -1.68672,-0.70075 -2.77812,-1.12932 -3.90104,-1.53185 -10.91309,-5.42979 -17.50046,-9.72836 -1.8486,-1.20629 -11.32376,-7.9738 -11.60371,-8.28779 -0.0728,-0.0816 -0.99549,-0.79666 -2.05052,-1.589 -1.05503,-0.79234 -1.91823,-1.47175 -1.91823,-1.50979 0,-0.26087 5.11299,-2.4526 5.36793,-2.30101 0.17634,0.10484 1.45171,1.04259 2.83415,2.08388 12.39713,9.33777 23.24135,14.43442 28.42335,13.35864 3.81144,-0.79125 5.14255,-4.39395 3.88056,-10.5029 -0.30606,-1.48152 -0.61907,-2.85683 -0.6956,-3.05625 -0.11215,-0.29228 0.58252,-0.2512 3.58286,0.21189 2.0471,0.31595 3.77093,0.62339 3.83075,0.68321 0.26737,0.26738 2.54561,6.39828 3.14066,8.45176 2.20641,7.61419 1.25176,12.71323 -2.70237,14.43412 -1.11004,0.48311 -5.31534,0.71808 -6.51958,0.36429 z M 77.661783,176.16043 c 0.258087,-0.3939 1.313579,-1.85637 2.345534,-3.24995 1.031954,-1.39358 2.568897,-3.54185 3.415427,-4.77394 0.846529,-1.23209 2.05123,-2.98291 2.677112,-3.89072 l 1.13797,-1.65057 2.614552,2.27777 c 1.438005,1.25277 3.031273,2.65124 3.540596,3.1077 0.509323,0.45647 1.63853,1.42439 2.509348,2.15093 0.870818,0.72654 1.823318,1.5418 2.116667,1.81167 0.293349,0.26988 0.801251,0.67052 1.128673,0.89033 0.327422,0.2198 0.595312,0.49983 0.595312,0.62228 0,0.30908 -3.508915,1.38413 -7.14375,2.18869 -3.971827,0.87914 -7.349551,1.23198 -11.793961,1.23198 h -3.612732 z m -11.275915,-1.2685 c -4.376328,-1.20178 -9.452849,-3.44287 -13.537756,-5.97641 -6.390347,-3.96342 -12.574797,-9.96227 -16.715873,-16.21422 -2.769002,-4.18047 -5.464495,-9.91516 -6.643894,-14.13496 l -0.465484,-1.66546 0.765784,-0.81045 c 1.506844,-1.59474 5.843204,-5.07181 8.703286,-6.97865 2.616219,-1.74426 9.519552,-5.68102 9.961986,-5.68102 0.09691,0 1.036966,0.98227 2.089026,2.18281 1.989161,2.26992 5.746263,6.38777 9.354405,10.25261 1.154774,1.23693 6.530557,6.65875 11.946183,12.0485 l 9.846599,9.79954 -2.642301,4.09108 c -4.023442,6.22951 -9.486832,13.75131 -9.971932,13.72899 -0.231807,-0.0107 -1.44232,-0.29972 -2.690029,-0.64236 z m 85.612312,-2.51492 c -11.22731,-1.44168 -19.09196,-3.70856 -27.21146,-7.84335 l -1.54687,-0.78773 1.29108,-1.43832 c 0.7101,-0.79107 1.62988,-1.85503 2.04395,-2.36435 0.99735,-1.22676 1.44461,-1.36259 2.46141,-0.74748 0.46783,0.28301 1.1785,0.57403 1.57928,0.6467 0.40077,0.0727 0.85238,0.2348 1.00356,0.36027 0.39932,0.33141 4.3927,1.76108 5.43717,1.94657 0.36769,0.0653 1.11183,0.30395 1.65364,0.53033 0.54182,0.22639 0.98512,0.36344 0.98512,0.30456 0,-0.0589 0.49482,0.0675 1.0996,0.28091 0.60479,0.21337 1.15622,0.33134 1.22542,0.26215 0.0692,-0.0692 0.33533,-0.0137 0.59142,0.12338 0.25609,0.13706 0.86551,0.30752 1.35427,0.37882 0.48877,0.0713 1.66257,0.25976 2.60846,0.41882 3.25748,0.54775 5.36166,0.77113 8.71034,0.92466 2.96478,0.13594 3.41538,0.32763 3.9812,1.69366 0.24786,0.59836 0.19895,1.14846 -0.26291,2.95744 -0.31208,1.22228 -0.69092,2.37117 -0.84188,2.55307 -0.35327,0.42569 -1.60608,0.38501 -6.1628,-0.20011 z m -48.02187,-2.31254 c -2.15856,-1.7784 -9.087014,-7.9003 -11.364656,-10.04167 l -2.236525,-2.10271 0.548872,-0.90665 c 0.301882,-0.49865 2.14579,-3.52601 4.097571,-6.72747 3.960863,-6.4969 7.572158,-12.77985 10.873468,-18.91771 l 2.20579,-4.10104 -1.07007,-0.17281 c -1.68978,-0.2729 -3.58712,-0.99532 -5.25278,-2.00004 -0.84528,-0.50986 -1.57021,-0.88439 -1.61096,-0.8323 -0.0407,0.0521 -1.623249,3.13083 -3.516665,6.84161 -3.573132,7.00273 -6.043295,11.55312 -9.687664,17.84605 l -2.137447,3.69084 -4.350922,-4.48459 C 72.917769,140.36727 61.445404,127.4969 57.084464,121.91587 l -1.25122,-1.60128 2.574137,-0.92365 c 9.968302,-3.57682 22.34215,-5.9548 35.377952,-6.79886 6.379387,-0.41307 5.859798,-0.4974 6.056241,0.98295 0.237086,1.78659 1.479636,4.23702 2.838296,5.59738 0.64028,0.64109 1.93805,1.53406 2.88394,1.98438 1.52758,0.72725 1.98593,0.81876 4.10104,0.81876 2.11511,0 2.57346,-0.0915 4.10104,-0.81876 2.79707,-1.33165 4.73351,-3.66645 5.54724,-6.68841 l 0.30921,-1.14831 1.50355,0.17593 c 2.4514,0.28684 9.3191,1.45635 11.44045,1.94822 l 1.96934,0.45662 0.16973,1.58215 c 0.27607,2.5736 0.24826,8.68475 -0.0521,11.4483 -1.07929,9.93037 -5.31036,20.12622 -11.55176,27.83697 -2.21952,2.74204 -7.16618,7.51144 -9.86157,9.50817 -2.35321,1.74326 -7.31597,4.78304 -7.7943,4.77415 -0.15331,-0.003 -0.81453,-0.4466 -1.46937,-0.98611 z m 28.04583,-17.85917 c 0,-0.0631 0.58933,-1.27221 1.30961,-2.68694 2.48236,-4.87568 4.77937,-11.86367 5.57472,-16.95947 0.31321,-2.00672 0.56881,-2.48408 1.1081,-2.06949 0.27033,0.20781 3.05366,1.18192 3.64924,1.27715 0.0728,0.0116 0.56133,0.16838 1.08572,0.34833 0.52438,0.17994 1.17969,0.37074 1.45624,0.424 0.27654,0.0533 1.03813,0.24701 1.6924,0.43056 0.65428,0.18354 1.36819,0.35551 1.58647,0.38214 0.21828,0.0266 0.79315,0.13857 1.27749,0.24875 0.8882,0.20205 1.26809,0.26856 2.95585,0.51749 2.54133,0.37483 3.42476,0.48893 4.7625,0.6151 2.08191,0.19636 11.48042,0.1869 13.36145,-0.0134 0.87313,-0.093 2.22553,-0.22946 3.00533,-0.30324 0.7798,-0.0738 4.17308,-0.66254 7.54062,-1.30834 3.36755,-0.64581 6.42046,-1.15259 6.78426,-1.12618 0.63061,0.0458 0.66504,0.13518 0.73821,1.91708 0.11652,2.838 -0.2676,3.16745 -7.40352,6.34985 -13.30108,5.93185 -24.99813,8.94837 -43.47323,11.21119 -2.47385,0.30299 -5.06346,0.62048 -5.75469,0.70553 -0.69122,0.085 -1.25677,0.10303 -1.25677,0.0399 z M 26.056514,95.477005 c -3.02069,-4.14755 -5.253935,-7.392826 -7.983564,-11.601453 -2.559132,-3.945747 -5.907061,-9.366467 -5.907061,-9.564277 0,-0.05694 -0.284187,-0.55371 -0.631526,-1.103932 -0.34734,-0.550222 -1.521741,-2.720745 -2.609779,-4.823388 -8.08356871,-15.621554 -9.14682597,-25.700988 -2.9554964,-28.01746 1.7924277,-0.670633 5.0234404,-0.723163 7.5197174,-0.122256 0.945886,0.227694 1.957917,0.461202 2.248959,0.518904 2.404525,0.476731 10.446983,4.280738 15.786232,7.466742 l 3.350816,1.999477 -0.749001,1.34497 c -0.411948,0.739733 -0.899776,1.860706 -1.084061,2.49105 -0.30402,1.039889 -0.398002,1.131723 -1.014318,0.991134 -1.623798,-0.370409 -4.448328,-0.46115 -5.495867,-0.176562 -4.934299,1.34052 -5.219123,7.626171 -0.840314,18.544557 1.284775,3.203532 4.613649,9.873617 6.782578,13.590291 l 1.059953,1.816333 -1.419836,2.121254 c -0.780913,1.166691 -1.987047,3.236061 -2.680301,4.598604 -0.693256,1.362541 -1.319996,2.475471 -1.392756,2.473177 -0.07276,-0.0024 -0.965729,-1.148516 -1.984375,-2.547165 z M 125.8491,85.264615 c -0.57495,-0.82862 -3.94954,-4.289941 -5.92004,-6.072185 l -1.64203,-1.485165 0.52167,-1.810649 c 2.62889,-9.124381 4.04072,-17.588148 4.0535,-24.300231 0.0117,-6.129488 -0.67902,-8.801222 -2.85253,-11.034166 -4.22685,-4.342435 -13.22334,0.741691 -24.441204,13.812291 -1.810957,2.110052 -4.380741,5.288921 -5.710632,7.064153 L 87.439849,64.66636 86.31537,64.6798 c -0.618464,0.0074 -1.124479,-0.05287 -1.124479,-0.133929 0,-0.326165 6.724041,-9.010238 10.436473,-13.478661 5.570306,-6.704627 14.130706,-15.268337 18.144456,-18.151465 0.65158,-0.468039 1.24423,-0.921548 1.31699,-1.007799 0.27209,-0.322539 3.36409,-2.263089 4.89479,-3.071988 0.87312,-0.461403 2.56541,-1.169927 3.76064,-1.574498 1.87762,-0.635552 2.4713,-0.719339 4.36563,-0.616132 2.55785,0.139355 3.60742,0.588501 5.04824,2.160299 1.72029,1.876671 2.80547,4.660107 3.31518,8.503249 0.36677,2.765396 0.19261,8.802095 -0.37937,13.14998 -0.25579,1.944283 -2.03898,11.131521 -2.35199,12.117729 -0.085,0.267793 -0.20134,0.704765 -0.25854,0.97105 -0.68136,3.171605 -3.24349,11.732212 -5.05455,16.888325 -0.81782,2.328333 -1.5484,4.501224 -1.6235,4.828646 -0.0751,0.327422 -0.22804,0.595312 -0.33986,0.595312 -0.11182,0 -0.38919,-0.26789 -0.61638,-0.595312 z m -71.014388,-17.484347 -2.178053,-1.631799 0.905135,-0.905486 0.905137,-0.905484 2.570019,2.088356 2.570023,2.088357 -1.032521,0.463835 c -0.567886,0.255112 -1.151583,0.457129 -1.297104,0.448927 -0.145521,-0.0082 -1.244706,-0.749218 -2.442636,-1.646706 z M 41.899447,65.017616 c -1.407393,-0.503291 -2.56613,-1.342986 -3.680021,-2.666767 l -0.650825,-0.773462 1.024007,-0.925132 c 1.309782,-1.183306 2.954911,-2.121461 4.794115,-2.733892 1.791851,-0.596664 5.910982,-0.667059 7.751752,-0.132477 1.229662,0.357109 1.264076,0.394436 1.09765,1.190625 -0.504166,2.411995 -2.416355,4.819733 -4.599876,5.791952 -1.672736,0.744791 -4.060794,0.848505 -5.736802,0.249153 z"
           style="fill:#000000;stroke-width:0.26458299" />
      </g>
    </g>
    <text
       xml:space="preserve"
       style="font-style:normal;font-variant:normal;font-weight:bold;font-stretch:normal;font-size:19.75559998px;line-height:1.25;font-family:sans-serif;-inkscape-font-specification:'sans-serif Bold';fill:#000000;fill-opacity:1;stroke:none;stroke-width:0.26458299"
       x="59.98624"
       y="72.483734"
       id="text5303"><tspan
         id="tspan5301"
         style="font-style:normal;font-variant:normal;font-weight:bold;font-stretch:normal;font-size:19.75559998px;font-family:sans-serif;-inkscape-font-specification:'sans-serif Bold';stroke-width:0.26458299"
         x="59.98624"
         y="72.483734"
         sodipodi:role="line">uaCS</tspan></text>
  </g>
</svg>
